<svg width="71" height="67" viewBox="0 0 71 67" fill="none" xmlns="http://www.w3.org/2000/svg">
<g clip-path="url(#clip0_71_2219)">
<path d="M10.4631 22.9434L10.4661 27.9269C10.4669 29.3031 11.5831 30.418 12.9593 30.4172L17.9428 30.4143C19.3189 30.4135 20.4339 29.2972 20.4331 27.921L20.4301 22.9375C20.4293 21.5614 19.3131 20.4464 17.9369 20.4473L12.9534 20.4502C11.5772 20.451 10.4623 21.5673 10.4631 22.9434Z" fill="#74C9E3"/>
<path d="M2.99782 65.5629C1.62167 65.5657 0.505879 64.4524 0.505643 63.0762L0.500488 33.0169C0.500252 31.6408 1.61566 30.5229 2.99181 30.5201L7.97533 30.51C9.35149 30.5072 10.4673 31.6205 10.4675 32.9966L10.4727 63.0559C10.4729 64.4321 9.3575 65.55 7.98134 65.5528L2.99782 65.5629Z" fill="#74C9E3"/>
<path d="M62.7999 65.1809C61.4237 65.1837 60.3079 64.0704 60.3077 62.6942L60.3026 32.8953C60.3024 31.5192 61.4178 30.4013 62.7939 30.3985L67.7774 30.3884C69.1536 30.3856 70.2694 31.4989 70.2696 32.875L70.2747 62.6739C70.275 64.0501 69.1596 65.1679 67.7834 65.1707L62.7999 65.1809Z" fill="#74C9E3"/>
<path d="M50.3311 22.9198L50.3341 27.9033C50.3349 29.2794 51.4512 30.3944 52.8273 30.3935L57.8108 30.3906C59.187 30.3898 60.3019 29.2735 60.3011 27.8974L60.2982 22.9139C60.2974 21.5377 59.1811 20.4228 57.8049 20.4236L52.8214 20.4265C51.4453 20.4273 50.3303 21.5436 50.3311 22.9198Z" fill="#74C9E3"/>
<path d="M20.424 12.9705L20.427 17.954C20.4278 19.3302 21.5441 20.4451 22.9202 20.4443L27.9037 20.4414C29.2799 20.4406 30.3948 19.3243 30.394 17.9481L30.3911 12.9646C30.3902 11.5885 29.274 10.4735 27.8978 10.4744L22.9143 10.4773C21.5382 10.4781 20.4232 11.5944 20.424 12.9705Z" fill="#74C9E3"/>
<path d="M40.3581 12.9588L40.3611 17.9423C40.3619 19.3185 41.4781 20.4334 42.8543 20.4326L47.8378 20.4297C49.214 20.4288 50.3289 19.3126 50.3281 17.9364L50.3251 12.9529C50.3243 11.5768 49.2081 10.4618 47.8319 10.4626L42.8484 10.4656C41.4723 10.4664 40.3573 11.5827 40.3581 12.9588Z" fill="#74C9E3"/>
<path d="M30.385 2.99764L30.3879 7.98114C30.3887 9.3573 31.505 10.4722 32.8812 10.4714L37.8647 10.4685C39.2408 10.4677 40.3558 9.3514 40.3549 7.97524L40.352 2.99175C40.3512 1.61559 39.2349 0.500647 37.8588 0.501461L32.8753 0.50441C31.4991 0.505224 30.3842 1.62148 30.385 2.99764Z" fill="#74C9E3"/>
</g>
<defs>
<clipPath id="clip0_71_2219">
<rect width="70" height="66" fill="white" transform="translate(0.5 0.5)"/>
</clipPath>
</defs>
</svg>
