<svg width="33" height="68" viewBox="0 0 33 68" fill="none" xmlns="http://www.w3.org/2000/svg">
<g clip-path="url(#clip0_71_2227)">
<path d="M11.1333 8.85653L11.1362 13.6459C11.1369 14.9684 12.2097 16.0399 13.5322 16.0391L18.3216 16.0363C19.6441 16.0355 20.7156 14.9627 20.7148 13.6402L20.712 8.85086C20.7112 7.52832 19.6384 6.45683 18.3159 6.45761L13.5266 6.46044C12.204 6.46122 11.1325 7.53399 11.1333 8.85653Z" fill="#74C9E3"/>
<path d="M3.35395 53.1726C2.03141 53.1753 0.959101 52.1054 0.958874 50.7829L0.953125 17.2574C0.952898 15.9349 2.02485 14.8606 3.34738 14.8579L8.13673 14.8481C9.45926 14.8454 10.5316 15.9155 10.5318 17.238L10.5376 50.7634C10.5378 52.0859 9.46583 53.1601 8.1433 53.1628L3.35395 53.1726Z" fill="#74C9E3"/>
<path d="M22.5011 2.87002L22.511 19.6327C22.5118 20.9552 23.5846 22.0267 24.9071 22.0259L30.3075 22.0227C31.63 22.0219 32.7015 20.9492 32.7007 19.6266L32.6908 2.86399C32.69 1.54145 31.6173 0.469953 30.2947 0.470735L24.8944 0.473931C23.5718 0.474713 22.5003 1.54748 22.5011 2.87002Z" fill="#74C9E3"/>
<path d="M11.1333 54.3553L11.1362 59.1446C11.1369 60.4672 12.2097 61.5387 13.5322 61.5379L18.3216 61.5351C19.6441 61.5343 20.7156 60.4615 20.7148 59.139L20.712 54.3496C20.7112 53.0271 19.6384 51.9556 18.3159 51.9564L13.5266 51.9592C12.204 51.96 11.1325 53.0328 11.1333 54.3553Z" fill="#74C9E3"/>
<path d="M22.5011 48.3686L22.511 65.1312C22.5118 66.4537 23.5846 67.5252 24.9071 67.5245L30.3075 67.5213C31.63 67.5205 32.7015 66.4477 32.7007 65.1252L32.6908 48.3625C32.69 47.04 31.6173 45.9685 30.2947 45.9693L24.8944 45.9725C23.5718 45.9732 22.5003 47.046 22.5011 48.3686Z" fill="#74C9E3"/>
</g>
<defs>
<clipPath id="clip0_71_2227">
<rect width="33" height="68" fill="white"/>
</clipPath>
</defs>
</svg>
