<svg width="69" height="65" viewBox="0 0 69 65" fill="none" xmlns="http://www.w3.org/2000/svg">
<g clip-path="url(#clip0_71_2202)">
<path d="M49.5014 38.9976L49.5044 43.9811C49.5052 45.3573 50.6215 46.4722 51.9976 46.4714L56.9811 46.4685C58.3573 46.4677 59.4722 45.3514 59.4714 43.9752L59.4685 38.9917C59.4676 37.6156 58.3514 36.5006 56.9752 36.5015L51.9917 36.5044C50.6156 36.5052 49.5006 37.6215 49.5014 38.9976Z" fill="#74C9E3"/>
<path d="M49.5014 56.9976L49.5044 61.9811C49.5052 63.3573 50.6215 64.4722 51.9976 64.4714L56.9811 64.4685C58.3573 64.4677 59.4722 63.3514 59.4714 61.9752L59.4685 56.9917C59.4676 55.6156 58.3514 54.5006 56.9752 54.5015L51.9917 54.5044C50.6156 54.5052 49.5006 55.6215 49.5014 56.9976Z" fill="#74C9E3"/>
<path d="M40.5014 47.9976L40.5044 52.9811C40.5052 54.3573 41.6215 55.4722 42.9976 55.4714L47.9811 55.4685C49.3573 55.4677 50.4722 54.3514 50.4714 52.9752L50.4685 47.9917C50.4676 46.6156 49.3514 45.5006 47.9752 45.5015L42.9917 45.5044C41.6156 45.5052 40.5006 46.6215 40.5014 47.9976Z" fill="#74C9E3"/>
<path d="M58.5014 47.9976L58.5044 52.9811C58.5052 54.3573 59.6215 55.4722 60.9976 55.4714L65.9811 55.4685C67.3573 55.4677 68.4722 54.3514 68.4714 52.9752L68.4685 47.9917C68.4676 46.6156 67.3514 45.5006 65.9752 45.5015L60.9917 45.5044C59.6156 45.5052 58.5006 46.6215 58.5014 47.9976Z" fill="#74C9E3"/>
<path d="M9.50144 38.9976L9.50439 43.9811C9.5052 45.3573 10.6215 46.4722 11.9976 46.4714L16.9811 46.4685C18.3573 46.4677 19.4722 45.3514 19.4714 43.9752L19.4685 38.9917C19.4676 37.6156 18.3514 36.5006 16.9752 36.5015L11.9917 36.5044C10.6156 36.5052 9.50062 37.6215 9.50144 38.9976Z" fill="#74C9E3"/>
<path d="M9.50144 56.9976L9.50439 61.9811C9.5052 63.3573 10.6215 64.4722 11.9976 64.4714L16.9811 64.4685C18.3573 64.4677 19.4722 63.3514 19.4714 61.9752L19.4685 56.9917C19.4676 55.6156 18.3514 54.5006 16.9752 54.5015L11.9917 54.5044C10.6156 54.5052 9.50062 55.6215 9.50144 56.9976Z" fill="#74C9E3"/>
<path d="M0.501437 47.9976L0.504385 52.9811C0.505199 54.3573 1.62146 55.4722 2.99762 55.4714L7.98112 55.4685C9.35728 55.4677 10.4722 54.3514 10.4714 52.9752L10.4685 47.9917C10.4676 46.6156 9.35138 45.5006 7.97522 45.5015L2.99172 45.5044C1.61556 45.5052 0.500622 46.6215 0.501437 47.9976Z" fill="#74C9E3"/>
<path d="M18.5014 47.9976L18.5044 52.9811C18.5052 54.3573 19.6215 55.4722 20.9976 55.4714L25.9811 55.4685C27.3573 55.4677 28.4722 54.3514 28.4714 52.9752L28.4685 47.9917C28.4676 46.6156 27.3514 45.5006 25.9752 45.5015L20.9917 45.5044C19.6156 45.5052 18.5006 46.6215 18.5014 47.9976Z" fill="#74C9E3"/>
<path d="M49.5014 2.99764L49.5044 7.98114C49.5052 9.3573 50.6215 10.4722 51.9976 10.4714L56.9811 10.4685C58.3573 10.4677 59.4722 9.3514 59.4714 7.97524L59.4685 2.99175C59.4676 1.61559 58.3514 0.500647 56.9752 0.501461L51.9917 0.50441C50.6156 0.505224 49.5006 1.62148 49.5014 2.99764Z" fill="#74C9E3"/>
<path d="M49.5014 20.9976L49.5044 25.9811C49.5052 27.3573 50.6215 28.4722 51.9976 28.4714L56.9811 28.4685C58.3573 28.4677 59.4722 27.3514 59.4714 25.9752L59.4685 20.9917C59.4676 19.6156 58.3514 18.5006 56.9752 18.5015L51.9917 18.5044C50.6156 18.5052 49.5006 19.6215 49.5014 20.9976Z" fill="#74C9E3"/>
<path d="M40.5014 11.9976L40.5044 16.9811C40.5052 18.3573 41.6215 19.4722 42.9976 19.4714L47.9811 19.4685C49.3573 19.4677 50.4722 18.3514 50.4714 16.9752L50.4685 11.9917C50.4676 10.6156 49.3514 9.50065 47.9752 9.50146L42.9917 9.50441C41.6156 9.50522 40.5006 10.6215 40.5014 11.9976Z" fill="#74C9E3"/>
<path d="M58.5014 11.9976L58.5044 16.9811C58.5052 18.3573 59.6215 19.4722 60.9976 19.4714L65.9811 19.4685C67.3573 19.4677 68.4722 18.3514 68.4714 16.9752L68.4685 11.9917C68.4676 10.6156 67.3514 9.50064 65.9752 9.50146L60.9917 9.50441C59.6156 9.50522 58.5006 10.6215 58.5014 11.9976Z" fill="#74C9E3"/>
<path d="M9.50144 2.99764L9.50439 7.98114C9.5052 9.3573 10.6215 10.4722 11.9976 10.4714L16.9811 10.4685C18.3573 10.4677 19.4722 9.35141 19.4714 7.97524L19.4685 2.99175C19.4676 1.61559 18.3514 0.500646 16.9752 0.50146L11.9917 0.504409C10.6156 0.505223 9.50062 1.62148 9.50144 2.99764Z" fill="#74C9E3"/>
<path d="M9.50144 20.9976L9.50439 25.9811C9.5052 27.3573 10.6215 28.4722 11.9976 28.4714L16.9811 28.4685C18.3573 28.4677 19.4722 27.3514 19.4714 25.9752L19.4685 20.9917C19.4676 19.6156 18.3514 18.5006 16.9752 18.5015L11.9917 18.5044C10.6156 18.5052 9.50062 19.6215 9.50144 20.9976Z" fill="#74C9E3"/>
<path d="M0.501437 11.9976L0.504385 16.9811C0.505199 18.3573 1.62146 19.4722 2.99762 19.4714L7.98112 19.4685C9.35728 19.4677 10.4722 18.3514 10.4714 16.9752L10.4685 11.9917C10.4676 10.6156 9.35138 9.50065 7.97522 9.50146L2.99172 9.50441C1.61556 9.50522 0.500622 10.6215 0.501437 11.9976Z" fill="#74C9E3"/>
<path d="M18.5014 11.9976L18.5044 16.9811C18.5052 18.3573 19.6215 19.4722 20.9976 19.4714L25.9811 19.4685C27.3573 19.4677 28.4722 18.3514 28.4714 16.9752L28.4685 11.9917C28.4676 10.6156 27.3514 9.50065 25.9752 9.50146L20.9917 9.50441C19.6156 9.50522 18.5006 10.6215 18.5014 11.9976Z" fill="#74C9E3"/>
</g>
<defs>
<clipPath id="clip0_71_2202">
<rect width="68" height="64" fill="white" transform="translate(0.5 0.5)"/>
</clipPath>
</defs>
</svg>
