<svg width="68" height="64" viewBox="0 0 68 64" fill="none" xmlns="http://www.w3.org/2000/svg">
<rect x="49.0059" y="45.9729" width="9.96702" height="9.96702" rx="2.49176" transform="rotate(-90.0339 49.0059 45.9729)" fill="#83e2ff"/>
<rect x="49.0059" y="63.9729" width="9.96702" height="9.96702" rx="2.49176" transform="rotate(-90.0339 49.0059 63.9729)" fill="#83e2ff"/>
<rect x="40.0059" y="54.9729" width="9.96702" height="9.96702" rx="2.49176" transform="rotate(-90.0339 40.0059 54.9729)" fill="#83e2ff"/>
<rect x="58.0059" y="54.9729" width="9.96702" height="9.96702" rx="2.49176" transform="rotate(-90.0339 58.0059 54.9729)" fill="#83e2ff"/>
<rect x="9.00586" y="45.9729" width="9.96702" height="9.96702" rx="2.49176" transform="rotate(-90.0339 9.00586 45.9729)" fill="#83e2ff"/>
<rect x="9.00586" y="63.9729" width="9.96702" height="9.96702" rx="2.49176" transform="rotate(-90.0339 9.00586 63.9729)" fill="#83e2ff"/>
<rect x="0.00585938" y="54.9729" width="9.96702" height="9.96702" rx="2.49176" transform="rotate(-90.0339 0.00585938 54.9729)" fill="#83e2ff"/>
<rect x="18.0059" y="54.9729" width="9.96702" height="9.96702" rx="2.49176" transform="rotate(-90.0339 18.0059 54.9729)" fill="#83e2ff"/>
<rect x="49.0059" y="9.9729" width="9.96702" height="9.96702" rx="2.49176" transform="rotate(-90.0339 49.0059 9.9729)" fill="#83e2ff"/>
<rect x="49.0059" y="27.9729" width="9.96702" height="9.96702" rx="2.49176" transform="rotate(-90.0339 49.0059 27.9729)" fill="#83e2ff"/>
<rect x="40.0059" y="18.9729" width="9.96702" height="9.96702" rx="2.49176" transform="rotate(-90.0339 40.0059 18.9729)" fill="#83e2ff"/>
<rect x="58.0059" y="18.9729" width="9.96702" height="9.96702" rx="2.49176" transform="rotate(-90.0339 58.0059 18.9729)" fill="#83e2ff"/>
<rect x="9.00586" y="9.9729" width="9.96702" height="9.96702" rx="2.49176" transform="rotate(-90.0339 9.00586 9.9729)" fill="#83e2ff"/>
<rect x="9.00586" y="27.9729" width="9.96702" height="9.96702" rx="2.49176" transform="rotate(-90.0339 9.00586 27.9729)" fill="#83e2ff"/>
<rect x="0.00585938" y="18.9729" width="9.96702" height="9.96702" rx="2.49176" transform="rotate(-90.0339 0.00585938 18.9729)" fill="#83e2ff"/>
<rect x="18.0059" y="18.9729" width="9.96702" height="9.96702" rx="2.49176" transform="rotate(-90.0339 18.0059 18.9729)" fill="#83e2ff"/>
</svg>
