<svg width="70" height="66" viewBox="0 0 70 66" fill="none" xmlns="http://www.w3.org/2000/svg">
<rect x="9.96756" y="29.9187" width="9.96702" height="9.96702" rx="2.49176" transform="rotate(-90.0339 9.96756 29.9187)" fill="#83e2ff"/>
<path d="M2.49776 65.063C1.12161 65.0658 0.00582065 63.9525 0.00558465 62.5763L0.00042972 32.517C0.000193721 31.1409 1.1156 30.023 2.49175 30.0202L7.47527 30.0101C8.85143 30.0073 9.96721 31.1206 9.96745 32.4967L9.9726 62.556C9.97284 63.9322 8.85744 65.0501 7.48128 65.0529L2.49776 65.063Z" fill="#83e2ff"/>
<path d="M62.2999 64.6809C60.9237 64.6837 59.8079 63.5704 59.8077 62.1942L59.8026 32.3953C59.8024 31.0192 60.9178 29.9013 62.2939 29.8985L67.2774 29.8884C68.6536 29.8856 69.7694 30.9989 69.7696 32.375L69.7747 62.1739C69.775 63.5501 68.6596 64.6679 67.2834 64.6707L62.2999 64.6809Z" fill="#83e2ff"/>
<rect x="49.8356" y="29.8951" width="9.96702" height="9.96702" rx="2.49176" transform="rotate(-90.0339 49.8356 29.8951)" fill="#83e2ff"/>
<rect x="19.9285" y="19.9457" width="9.96702" height="9.96702" rx="2.49176" transform="rotate(-90.0339 19.9285 19.9457)" fill="#83e2ff"/>
<rect x="39.8625" y="19.934" width="9.96702" height="9.96702" rx="2.49176" transform="rotate(-90.0339 39.8625 19.934)" fill="#83e2ff"/>
<rect x="29.8894" y="9.9729" width="9.96702" height="9.96702" rx="2.49176" transform="rotate(-90.0339 29.8894 9.9729)" fill="#83e2ff"/>
</svg>
