<svg width="1044" height="217" viewBox="0 0 1044 217" fill="none" xmlns="http://www.w3.org/2000/svg">
<g clip-path="url(#clip0_81_2203)">
<path d="M787.921 209.421H812.471V6.27467H787.921V209.421Z" fill="#E7E6E8"/>
<path d="M150.113 158.335L12.8953 6.65466L12.5703 6.27467H0V209.421H25.774V58.0187L162.953 209.051L163.296 209.421H175.299V6.27467H150.113V158.335Z" fill="#E7E6E8"/>
<path d="M468.919 0.00400868C409.165 0.00400868 360.573 48.6293 360.573 108.376C360.573 168.095 409.165 216.692 468.919 216.692C528.66 216.692 577.252 168.095 577.252 108.376C577.252 48.6293 528.66 0.00400868 468.919 0.00400868ZM468.919 191.723C422.943 191.723 385.536 154.327 385.536 108.376C385.536 62.3813 422.943 24.964 468.919 24.964C514.86 24.964 552.283 62.3813 552.283 108.376C552.283 154.327 514.86 191.723 468.919 191.723Z" fill="#E7E6E8"/>
<path d="M1029.15 111.24C1015.49 96.0673 997.987 92.8854 985.733 92.8854H911.272C898.403 92.8854 890.599 87.6756 886.339 83.288C880.82 77.62 877.785 70.0053 877.785 61.8493C877.785 47.1067 888.257 31.2186 911.297 31.2186H1015.48V6.44932H911.297C889.256 6.44932 875.623 15.8626 868.08 23.776C858.359 33.9506 853.023 47.4853 853.023 61.8493C853.023 76.4853 858.528 90.2365 868.584 100.553C876.127 108.368 889.715 117.659 911.297 117.659H985.733C1008.75 117.659 1019.23 134.807 1019.23 150.75C1019.23 159.643 1016.12 167.951 1010.45 174.113C1004.27 180.82 995.963 184.2 985.733 184.2H867.621V208.989H985.733C1007.43 208.989 1021.07 199.14 1028.65 190.9C1038.55 180.162 1044 165.895 1044 150.75C1044 135.862 1038.71 121.829 1029.15 111.24Z" fill="#E7E6E8"/>
<path d="M341.525 30.8867L341.865 30.3533C346.733 22.4427 352.375 14.964 358.584 8.13201L360.285 6.27467H215.86V209.421H359.332L357.691 207.575C351.689 200.86 346.247 193.579 341.596 185.937L341.261 185.412H242.472L242.885 117.692H320.087L320.032 116.541C319.88 113.774 319.825 111.024 319.825 108.376C319.825 104.077 320.013 99.6439 320.401 95.1564L320.491 93.9569H242.505V30.8867H341.525Z" fill="#E7E6E8"/>
<path d="M692.671 117.442C712.136 116.432 724.572 107.765 731.636 100.526C741.657 90.1912 747.2 76.4853 747.2 61.8493C747.2 47.512 741.849 34.0147 732.159 23.8587C724.628 15.9547 711.028 6.54665 689.003 6.54665H577.46L579.12 8.37598C585.336 15.2867 590.952 22.756 595.755 30.6173L596.096 31.148H689.003C712.067 31.148 722.571 47.08 722.571 61.8493C722.571 70.0053 719.544 77.6373 714.009 83.3533C709.729 87.7392 701.935 92.9647 689.003 92.9647H616.875L616.992 94.1745C617.427 98.924 617.663 103.699 617.663 108.376C617.663 111.08 617.605 113.785 617.456 116.377L617.399 117.55H662.844L722.016 208.927L722.34 209.421H750.617L695.807 122.643L692.671 117.442Z" fill="#E7E6E8"/>
</g>
<defs>
<clipPath id="clip0_81_2203">
<rect width="1044" height="216.693" fill="white"/>
</clipPath>
</defs>
</svg>
