<svg width="33" height="68" viewBox="0 0 33 68" fill="none" xmlns="http://www.w3.org/2000/svg">
<rect x="11.1376" y="16.0406" width="9.57867" height="9.57867" rx="2.39467" transform="rotate(-90.0339 11.1376 16.0406)" fill="#83e2ff"/>
<path d="M3.35389 53.1727C2.03135 53.1754 0.959045 52.1054 0.958818 50.7829L0.953069 17.2575C0.952842 15.935 2.02479 14.8607 3.34732 14.858L8.13667 14.8482C9.4592 14.8455 10.5315 15.9155 10.5317 17.238L10.5375 50.7634C10.5377 52.0859 9.46577 53.1602 8.14324 53.1629L3.35389 53.1727Z" fill="#83e2ff"/>
<rect x="22.5124" y="22.0273" width="21.552" height="10.1897" rx="2.39467" transform="rotate(-90.0339 22.5124 22.0273)" fill="#83e2ff"/>
<rect x="11.1376" y="61.5393" width="9.57867" height="9.57867" rx="2.39467" transform="rotate(-90.0339 11.1376 61.5393)" fill="#83e2ff"/>
<rect x="22.5124" y="67.526" width="21.552" height="10.1897" rx="2.39467" transform="rotate(-90.0339 22.5124 67.526)" fill="#83e2ff"/>
</svg>
